<svg width="349" height="201" viewBox="0 0 349 201" fill="none" xmlns="http://www.w3.org/2000/svg">
<path fill-rule="evenodd" clip-rule="evenodd" d="M273.098 119.377C269.843 115.035 269.279 107.356 262.674 106.674C256.264 104.94 249.883 103.091 243.413 101.59C230.743 103.655 218.073 105.72 205.403 107.785C203.918 114.621 202.433 121.458 200.949 128.295C221.436 130.97 241.923 133.645 262.41 136.32C267.754 139.887 273.098 143.454 278.443 147.021C292.398 148.508 306.353 149.994 320.307 151.48C326.839 149.102 333.372 146.724 339.904 144.346C319.595 137.784 298.796 132.556 279.057 124.384C276.63 123.265 274.946 121.22 273.098 119.377Z" fill="#DB0026"/>
<path d="M347.77 143.459C346.398 141.667 344.185 140.951 342.655 140.263C341.158 139.556 341.373 138.094 340.122 137.671C338.841 137.258 336.601 139.872 334.86 139.329C333.121 138.759 333.249 135.506 331.797 135.025C330.309 134.556 327.724 136.995 326.372 136.562C325.011 136.166 324.745 132.749 323.432 132.313C322.133 131.917 319.374 134.347 318.028 133.93C316.676 133.475 316.589 130.147 315.088 129.652C313.594 129.194 310.968 131.681 309.664 131.232C308.316 130.815 308.186 127.494 306.754 127.011C305.306 126.551 302.649 128.99 301.313 128.55C299.936 128.106 299.561 124.693 298.307 124.281C297.026 123.889 294.525 125.902 292.491 125.786C278.378 124.469 272.978 115.579 272.018 118.209C271.075 120.786 274.96 127.054 279.842 129.171C283.736 130.866 325.777 142.517 326.88 143.037C327.953 143.568 330.609 144.753 329.664 146.287C328.2 148.25 324.096 146.308 323.05 145.442C321.993 144.563 322.233 144.242 321.243 143.976C318.987 143.44 317.738 147.552 315.356 147.002C313.187 146.514 313.338 142.151 311.135 141.642C308.705 141.051 307.605 145.188 305.292 144.647C303.372 144.214 303.109 139.771 301.05 139.274C298.685 138.701 297.612 142.847 295.148 142.272C293.029 141.775 293.148 137.442 290.931 136.908C288.717 136.383 287.172 140.401 285.081 139.927C282.983 139.439 282.677 135.011 280.814 134.569C278.909 134.146 277.408 136.397 274.848 136.732C274.848 136.732 267.492 138.722 255.865 126.562C244.213 114.427 239.436 112.068 232.806 117.013C221.98 125.085 215.256 119.748 213.298 117.348C210.944 114.597 213.408 112.068 213.408 112.068C213.408 112.068 216.846 117.382 221.175 117.478C228.148 117.687 233.408 108.158 245.36 107.989C260.501 107.444 264.447 112.829 268.586 113.257C272.42 113.633 273.699 113.014 276.353 111.473H276.337C278.483 110.708 280.35 114.86 282.599 114.022C284.976 113.124 283.237 108.94 285.797 107.975C288.19 107.119 289.753 111.324 292.043 110.47C294.452 109.59 292.917 105.289 295.23 104.45C297.612 103.589 299.003 107.838 301.473 106.931C303.956 106.047 302.352 101.789 304.612 100.932C306.944 100.08 308.63 104.262 310.92 103.447C313.089 102.671 311.849 98.218 314.107 97.4072C316.452 96.5643 317.967 100.76 320.465 99.8419C322.519 99.125 321.382 94.6678 323.512 93.8593C325.64 93.0645 327.617 97.1965 329.831 96.3673C331.909 95.6 330.694 91.1704 332.904 90.3412C335.244 89.4961 337.049 93.628 339.262 92.8492C341.451 92.0613 339.79 88.4883 342.646 87.0682C342.646 87.0682 346.599 85.7672 346.35 82.863C346.317 82.3751 345.501 76.1658 338.99 74.8488C332.728 73.589 283.281 87.2812 282.64 86.491C278.089 77.4896 272.258 79.9908 271.37 80.1923C270.464 80.4214 264.944 82.7736 258.83 80.4214C246.822 74.9816 237.235 88.8181 230.658 86.9972C224.602 85.2931 219.971 86.2757 217.432 87.1415C215.107 87.9477 211.339 90.978 203.35 88.2272C141.611 67.1232 93.3577 85.5726 93.3577 85.5726C66.1507 94.6724 62.6709 85.5726 62.6709 85.5726C62.6709 85.5726 53.7163 73.3966 116.758 58.873C207.37 38.0347 210.102 3.55004 209.029 1.36955C207.542 -1.79353 206.974 1.933 203.991 5.36177C201.486 8.21106 198.576 6.80245 198.576 6.80245C195.725 5.43277 193.901 8.69205 193.901 8.69205C193.901 8.69205 190.234 14.3906 186.99 11.1497C183.874 8.03012 179.735 15.0709 178.189 15.3503C176.338 15.6779 175.434 14.7731 172.949 13.6302C169.227 11.9834 165.233 18.7722 163.187 19.2532C160.055 19.9701 157.857 15.5588 155.164 17.4209C147.113 22.9866 145.845 23.7608 143.676 21.594C142.075 19.9564 141.839 18.179 136.461 23.3348C131.883 27.7301 129.691 28.5524 127.854 25.758C125.962 22.9454 126.449 19.1066 118.583 26.6627C114.829 30.2725 112.907 30.3412 110.757 28.7196C109.137 27.501 109.148 21.6902 103.507 26.9513C98.3932 31.6879 94.6801 33.7631 93.2318 29.5578C91.6326 24.8327 85.6065 30.4282 84.2132 31.7452C82.7673 33.0622 79.6695 36.5459 77.4984 32.95C75.3295 29.3334 70.1315 34.7319 67.0406 38.1584C64.6567 40.8199 62.7281 38.7654 60.2137 37.0773C57.3539 35.1144 48.7951 47.075 48.0195 47.7919C47.2371 48.4722 46.6399 47.7919 44.6793 46.1268C41.6662 43.5707 33.5375 57.7805 32.222 58.7081C32.222 58.7081 31.666 59.9335 29.4491 57.8149C26.2942 54.8121 9.55404 76.8758 3.23502 101.839C-4.84792 133.841 8.03034 158.381 8.03034 158.381C8.03034 158.381 11.8991 158.5 13.5463 155.882L16.0538 150.224C18.0854 145.508 21.4165 146.993 21.4165 146.993L13.5234 170.52C12.2766 173.619 13.0293 178.003 15.7884 182.146C18.3874 186.31 20.1788 189.125 22.263 191.061C28.6712 197.103 28.0169 189.957 28.1839 189.063C28.9343 185.238 33.1646 188.177 36.4888 190.009C42.5173 193.397 41.8469 185.916 43.1693 183.477C44.0867 181.729 47.0518 181.651 50.2685 184.35C52.7737 186.445 55.2628 179.345 55.2628 179.345C58.388 164.217 51.0463 162.467 47.0746 162.245L39.0352 161.876C39.0352 161.876 39.5637 159.574 40.401 157.419L40.7602 155.891C49.5272 134.02 34.8759 129.798 30.4924 130.147C25.6559 130.579 25.9945 127.494 25.9945 127.494C25.9945 127.494 52.4762 122.274 47.5391 150.389C47.5391 150.389 46.5645 155.286 45.9788 157.84L53.2564 158.69C59.5182 159.473 60.6301 166.89 60.6301 166.89C60.6301 166.89 83.6641 172.984 96.7277 170.547C96.7277 170.547 102.566 169.155 104.188 165.518C104.188 165.518 112.649 145.561 137.348 144.718C137.348 144.718 138.218 147.302 134.271 148.646C129.54 150.243 113.774 151.496 110.498 169.627V169.698C110.141 172.673 110.937 179.008 117.385 181.942C122.875 184.423 124.811 194.434 125.95 197.137C129.149 204.812 133.937 197.476 133.937 197.476C133.937 197.476 136.971 191.283 139.574 194.718C143.974 200.513 146.017 197.593 147.017 193.903C148.11 189.92 149.703 188.184 154.308 193.026C156.276 195.128 160.138 193.504 160.522 189.906C161.336 181.986 166.681 188.284 167.445 188.589C168.36 188.937 173.956 187.678 170.824 178.745C170.824 178.745 166.594 170.234 147.522 166.562C143.047 165.712 143.759 162.469 143.759 162.469L147.959 163.06C149.213 163.264 160.305 164.496 161.485 164.684C208.008 169.281 243.307 153.481 244.369 152.355C280.508 159.288 329.648 156.924 338.873 153.596C348.145 150.325 348.836 144.904 347.77 143.459ZM273.152 85.7237C273.907 84.5052 274.621 83.8158 275.278 83.4837C278.083 81.8873 279.872 86.885 279.531 87.0682C279.515 87.0774 279.451 87.098 279.423 87.1094C279.419 87.1163 279.419 87.1346 279.414 87.1415C278.973 87.3545 273.562 88.8914 273.029 88.5387C271.958 87.7943 273.152 85.7237 273.152 85.7237ZM252.605 87.3041C252.605 87.3041 253.303 86.4223 254.655 85.9734C255.989 85.4878 258.004 85.4054 260.674 87.1278C263.745 89.0815 263.667 90.6069 263.667 90.6069C263.566 90.6573 263.429 90.7077 263.276 90.7627C261.05 91.6239 251.919 92.7462 251.919 92.7462C250.143 89.4709 252.605 87.3041 252.605 87.3041ZM82.28 43.0645C83.8151 44.2487 82.344 51.0673 81.2504 50.0618L73.3642 45.8863C73.3642 45.8863 80.7082 41.9147 82.28 43.0645ZM69.4543 47.4186C71.0055 48.5753 69.5527 55.4099 68.4522 54.393L60.5889 50.2083C60.5912 50.2083 67.8963 46.2345 69.4543 47.4186ZM65.0182 60.7512C66.5762 61.917 65.1143 68.7631 64.0024 67.7736L56.1254 63.5386C56.1254 63.5386 63.451 59.5945 65.0182 60.7512ZM57.5118 78.6532L49.6256 74.4594C49.6256 74.4594 56.9604 70.4809 58.5161 71.6513C60.0925 72.8172 58.5871 79.6587 57.5118 78.6532ZM56.027 92.1552L48.1637 87.9615C48.1637 87.9615 55.4825 84.0013 57.0428 85.1465C58.6008 86.3009 57.148 93.1149 56.027 92.1552ZM55.8828 52.1712C57.4477 53.3348 55.9721 60.1396 54.8716 59.1708L46.9808 54.9633C46.9831 54.9633 54.3294 50.9917 55.8828 52.1712ZM49.0422 62.5652C50.5865 63.7265 49.1246 70.5336 48.0355 69.5648L40.1608 65.371C40.1585 65.371 47.4842 61.3856 49.0422 62.5652ZM34.9857 78.8731C34.9857 78.8731 42.3342 74.8808 43.8717 76.0627C45.4388 77.2194 43.9632 84.038 42.8627 83.0508L34.9857 78.8731ZM41.0233 95.9528L33.1623 91.743C33.1623 91.743 40.4948 87.7943 42.0414 88.9601C43.6063 90.1191 42.1398 96.9331 41.0233 95.9528ZM35.4181 67.2995C36.9693 68.4356 35.5027 75.2679 34.4023 74.2807L26.5527 70.0732C26.5527 70.0732 33.8441 66.1245 35.4181 67.2995ZM28.3326 81.0513C29.893 82.2079 28.431 89.0677 27.3054 88.0577L19.4467 83.8708C19.449 83.8708 26.7769 79.9289 28.3326 81.0513ZM17.9802 97.3431C17.9802 97.3431 25.3081 93.3989 26.8616 94.5602C28.4333 95.71 26.9371 102.549 25.8572 101.557L17.9802 97.3431ZM32.0298 112.753L24.1619 108.555C24.1619 108.555 31.4945 104.579 33.0525 105.744C34.6105 106.915 33.1234 113.729 32.0298 112.753ZM43.3157 121.906L35.4456 117.726C35.4456 117.726 42.7827 113.749 44.3384 114.904C45.8827 116.049 44.3933 122.916 43.3157 121.906ZM46.8436 107.618L38.9688 103.406C38.9688 103.406 46.3037 99.4617 47.8594 100.591C49.4174 101.759 47.9417 108.578 46.8436 107.618ZM57.3127 128.071L49.4563 123.88C49.4563 123.88 56.7476 119.913 58.3217 121.076C59.8751 122.247 58.4292 129.033 57.3127 128.071ZM61.0923 114.911L53.2289 110.719C53.2289 110.719 60.5478 106.775 62.0989 107.939C63.6546 109.086 62.2064 115.916 61.0923 114.911ZM63.6958 102.471L55.8325 98.2707C55.8325 98.2707 63.1513 94.3266 64.7231 95.4855C66.2834 96.6582 64.794 103.452 63.6958 102.471ZM74.7598 126.482L66.8942 122.263C66.8942 122.263 74.2153 118.326 75.7848 119.469C77.3611 120.63 75.8694 127.478 74.7598 126.482ZM78.1664 113.378L70.3054 109.194C70.3054 109.194 77.6379 105.206 79.1959 106.386C80.7288 107.513 79.2531 114.356 78.1664 113.378ZM81.0194 99.4961L73.1538 95.3C73.1538 95.3 80.4771 91.3673 82.0489 92.508C83.5955 93.6738 82.1198 100.486 81.0194 99.4961ZM92.0696 124.024L84.1789 119.83C84.1789 119.83 91.5137 115.859 93.0854 117.016C94.6297 118.209 93.1403 125.034 92.0696 124.024ZM94.7121 110.007L86.8488 105.792C86.8488 105.792 94.1836 101.837 95.7347 102.987C97.2951 104.164 95.8171 110.955 94.7121 110.007ZM97.4552 95.6161L89.5896 91.4154C89.5896 91.4154 96.9107 87.4644 98.4756 88.6142C100.029 89.8053 98.5602 96.6055 97.4552 95.6161ZM109.297 118.484L101.422 114.327C101.422 114.327 108.755 110.357 110.292 111.512C111.873 112.668 110.398 119.48 109.297 118.484ZM111.45 104.677L103.564 100.504C103.564 100.504 110.892 96.5414 112.438 97.6843C114.037 98.8547 112.539 105.703 111.45 104.677ZM114.182 91.1452L106.291 86.9743C106.291 86.9743 113.637 82.9867 115.181 84.1365C116.737 85.3137 115.266 92.1552 114.182 91.1452ZM126.234 115.566L118.364 111.365C118.364 111.365 125.676 107.396 127.25 108.557C128.824 109.73 127.339 116.535 126.234 115.566ZM128.382 102.675L120.505 98.4929C120.505 98.4929 127.847 94.4961 129.391 95.6871C130.947 96.814 129.476 103.672 128.382 102.675ZM130.974 88.9235L123.088 84.7366C123.088 84.7366 130.423 80.7306 131.995 81.9239C133.55 83.092 132.093 89.8969 130.974 88.9235ZM141.881 115.808L134.026 111.615C134.026 111.615 141.347 107.632 142.903 108.82C144.464 109.968 142.986 116.787 141.881 115.808ZM144.48 101.967L136.589 97.7828C136.589 97.7828 143.935 93.7906 145.495 94.9748C147.04 96.1452 145.564 102.952 144.48 101.967ZM147.426 88.1905L139.549 84.0036C139.549 84.0036 146.884 80.0114 148.444 81.2001C150.016 82.3545 148.527 89.1869 147.426 88.1905ZM158.282 115.808L150.405 111.594C150.405 111.594 157.728 107.634 159.286 108.823C160.842 109.968 159.394 116.787 158.282 115.808ZM160.801 102.735L152.945 98.5272C152.945 98.5272 160.259 94.5991 161.814 95.7191C163.377 96.8941 161.908 103.731 160.801 102.735ZM163.78 89.3563L155.93 85.1672C155.93 85.1672 163.251 81.2116 164.816 82.3545C166.351 83.5158 164.88 90.3435 163.78 89.3563ZM173.7 117.783L165.825 113.546C165.825 113.546 173.16 109.617 174.716 110.788C176.29 111.924 174.819 118.759 173.7 117.783ZM176.484 105.105L168.614 100.925C168.614 100.925 175.956 96.9629 177.5 98.1218C179.074 99.3037 177.555 106.111 176.484 105.105ZM179.49 92.1552L171.6 87.9821C171.6 87.9821 178.939 84.0128 180.506 85.1465C182.057 86.3009 180.561 93.1149 179.49 92.1552ZM191.76 107.84L183.899 103.69C183.899 103.69 191.218 99.7114 192.79 100.852C194.336 102.025 192.863 108.843 191.76 107.84Z" fill="#406D59"/>
</svg>
